<svg enable-background="new 0 0 22 14" viewBox="0 0 22 14" xmlns="http://www.w3.org/2000/svg"><g clip-rule="evenodd" fill="#fff" fill-rule="evenodd"><path d="m5 2.5c0-.2 0-.3.1-.5h-5.1v1h5.1c-.1-.2-.1-.3-.1-.5z"/><path d="m10.9 2c.1.2.1.3.1.5s0 .3-.1.5h11.1v-1z"/><path d="m8 5c1.4 0 2.5-1.1 2.5-2.5s-1.1-2.5-2.5-2.5-2.5 1.1-2.5 2.5 1.1 2.5 2.5 2.5z"/><path d="m0 11v1h11.1c0-.2-.1-.3-.1-.5s0-.3.1-.5z"/><path d="m17 11.5c0 .2 0 .3-.1.5h5.1v-1h-5.1c.1.2.1.3.1.5z"/><path d="m14 9c-1.4 0-2.5 1.1-2.5 2.5s1.1 2.5 2.5 2.5 2.5-1.1 2.5-2.5-1.1-2.5-2.5-2.5z"/></g></svg>